<svg width="763" height="225" viewBox="0 0 763 225" fill="none" xmlns="http://www.w3.org/2000/svg">
<mask id="mask0_4860_143" style="mask-type:alpha" maskUnits="userSpaceOnUse" x="12" y="5" width="743" height="220">
<path d="M13.1836 186V45.9609H52.2461V186H13.1836ZM77.832 186V45.9609H114.062L171.582 119.984V45.9609H210.059V186H176.074L116.211 109.242V186H77.832ZM230.469 140.199V106.801H296.094V140.199H230.469ZM311.719 115.98C311.719 105.889 313.574 96.3841 317.285 87.4648C321.061 78.4805 326.172 70.7656 332.617 64.3203C339.128 57.8099 346.973 52.6667 356.152 48.8906C365.332 45.1146 375.13 43.2266 385.547 43.2266C410.482 43.2266 430.078 53.0898 444.336 72.8164L415.918 94.7891C407.259 83.9818 396.973 78.5781 385.059 78.5781C375.358 78.5781 367.35 82.1914 361.035 89.418C354.785 96.5794 351.66 105.434 351.66 115.98C351.66 126.592 354.785 135.479 361.035 142.641C367.35 149.802 375.358 153.383 385.059 153.383C391.895 153.383 397.689 151.983 402.441 149.184C407.259 146.319 412.012 142.055 416.699 136.391L445.898 157.191C441.146 163.702 436.1 169.171 430.762 173.598C425.488 178.025 418.815 181.671 410.742 184.535C402.734 187.4 393.783 188.832 383.887 188.832C370.671 188.832 358.561 185.74 347.559 179.555C336.556 173.305 327.832 164.613 321.387 153.48C314.941 142.283 311.719 129.783 311.719 115.98ZM451.367 186L511.035 44.9844H548.438L608.008 186H566.406L556.152 161H502.148L492.188 186H451.367ZM513.574 130.824H545.02L529.395 90.9805L513.574 130.824ZM621.582 186V45.9609H675.586C687.891 45.9609 699.023 47.6862 708.984 51.1367C718.945 54.5221 727.246 59.3073 733.887 65.4922C740.527 71.612 745.638 78.9362 749.219 87.4648C752.799 95.9935 754.59 105.368 754.59 115.59C754.59 125.681 752.767 135.023 749.121 143.617C745.54 152.211 740.397 159.665 733.691 165.98C726.986 172.23 718.587 177.146 708.496 180.727C698.405 184.242 687.174 186 674.805 186H621.582ZM660.352 151.625H676.172C687.956 151.625 697.331 148.5 704.297 142.25C711.263 135.935 714.746 127.113 714.746 115.785C714.746 104.717 711.23 95.9935 704.199 89.6133C697.233 83.2331 687.891 80.043 676.172 80.043H660.352V151.625Z" fill="#0E4086"/>
<rect x="12" y="5" width="103" height="23" fill="#0E4086"/>
<rect x="622" y="5" width="132" height="23" fill="#0E4086"/>
<rect x="12" y="202" width="103" height="23" fill="#0E4086"/>
<rect x="622" y="202" width="132" height="23" fill="#0E4086"/>
</mask>
<g mask="url(#mask0_4860_143)">
<rect x="-12" y="-12" width="1053" height="601.59" fill="#0E4086"/>
</g>
</svg>
